<svg width="40" height="41" viewBox="0 0 40 41" xmlns="http://www.w3.org/2000/svg"><title>Combined Shape</title><path d="M4.605 27.314l35.385-15.73.01 2.484L4.598 29.806l.007-2.492zM35.392 8.628l.01 2.507L0 26.85l.007-2.514 11.516-5.112c-2.763-1.719-4.95-4.425-4.751-8.813.114-3.322 1.663-6.066 4.48-7.934C13.658.88 16.893 0 20.358 0c3.715 0 6.736.847 9.474 2.675 1.69 1.129 3.185 3.244 3.185 3.244l-3.995 1.773s-.672-.785-1.282-1.253c-1.603-1.233-4.068-2.212-7.382-2.212-2.067 0-8.844.457-9.238 6.347-.147 1.9.386 4.457 5.653 6.32l18.618-8.266zm-4.564 13.26c2.22 1.866 3.876 4.716 3.594 8.59C34.062 35.544 29.49 41 20.307 41c-5.733 0-10.82-2.476-13.605-6.624l-.622-.927-.287-.45 3.95-1.75.245.314.443.626c2.028 2.87 5.76 4.584 9.982 4.584 3.993 0 8.89-1.724 9.564-6.581.21-2.978-1.16-5-3.713-6.278l4.564-2.027z" fill="#014FFE" fill-rule="evenodd"/></svg>